<?xml version="1.0" encoding="utf-8"?>
<!-- Generator: Adobe Illustrator 15.0.0, SVG Export Plug-In  -->
<!DOCTYPE svg PUBLIC "-//W3C//DTD SVG 1.1//EN" "http://www.w3.org/Graphics/SVG/1.1/DTD/svg11.dtd" [
	<!ENTITY ns_flows "http://ns.adobe.com/Flows/1.0/">
]>
<svg version="1.1"
	 xmlns="http://www.w3.org/2000/svg" xmlns:xlink="http://www.w3.org/1999/xlink" xmlns:a="http://ns.adobe.com/AdobeSVGViewerExtensions/3.0/"
	 x="0px" y="0px" width="377px" height="79px" viewBox="-4.021 -4.988 377 79"
	 overflow="visible" enable-background="new -4.021 -4.988 377 79" xml:space="preserve">
<defs>
</defs>
<path fill="#C6DC12" d="M30.153,0.431c0,0,14.216-0.899,24.142,6.742c9.672,7.446,10.816,17.4,10.816,17.4
	s-17.235,0.134-25.842-4.246C33.145,17.209,29.369,11.405,30.153,0.431z"/>
<path fill="#C6DC12" d="M29.369,0.325c0,0-11.287-0.363-18.812,6.691c-7.524,7.055-9.406,14.108-9.406,14.108
	s14.109,0.47,21.476-5.487C29.996,9.681,29.369,0.325,29.369,0.325z"/>
<path fill="#FFFFFF" d="M26.625,0.447c-0.922,1.845-2.688,3.316-3.75,4.462c-1.038,1.158-2.127,2.269-3.276,3.317
	c-2.324,2.048-4.944,3.89-7.908,4.817l-0.07-0.175c1.355-0.69,2.582-1.58,3.711-2.566c1.149-0.964,2.211-2.027,3.209-3.146
	c2.039-2.179,3.683-3.855,5.163-6.393L26.625,0.447z"/>
<path fill="#FFFFFF" d="M53.124,15.725c-4.367-1.358-8.605-3.138-12.666-5.314c-2.026-1.101-3.911-2.429-5.874-3.677
	c-1.981-1.238-2.877-1.876-4.837-3.368L30.052,0c1.853,2.097,4.028,3.719,5.67,5.236c1.667,1.503,3.6,2.672,5.499,3.879
	c1.894,1.222,3.854,2.356,5.856,3.417c1.992,1.085,4.025,2.109,6.11,3.018L53.124,15.725z"/>
<path fill="#C6DC12" d="M30.153,66.7c0,0,14.216,0.899,24.142-6.742c9.672-7.446,10.816-17.4,10.816-17.4
	s-17.235-0.134-25.842,4.246C33.145,49.922,29.369,55.727,30.153,66.7z"/>
<path fill="#C6DC12" d="M29.369,66.807c0,0-11.287,0.363-18.812-6.692c-7.524-7.054-9.406-14.107-9.406-14.107
	s14.109-0.47,21.476,5.487C29.996,57.45,29.369,66.807,29.369,66.807z"/>
<path fill="#FFFFFF" d="M26.625,66.685c-0.922-1.845-2.688-3.316-3.75-4.462c-1.038-1.158-2.127-2.269-3.276-3.317
	c-2.324-2.048-4.944-3.89-7.908-4.816l-0.07,0.174c1.355,0.691,2.582,1.58,3.711,2.566c1.149,0.964,2.211,2.027,3.209,3.146
	c2.039,2.179,3.683,3.855,5.163,6.392L26.625,66.685z"/>
<path fill="#FFFFFF" d="M53.124,51.407c-4.367,1.358-8.605,3.138-12.666,5.314c-2.026,1.101-3.911,2.429-5.874,3.677
	c-1.981,1.237-2.877,1.875-4.837,3.367l0.305,3.367c1.853-2.097,4.028-3.719,5.67-5.236c1.667-1.503,3.6-2.672,5.499-3.879
	c1.894-1.222,3.854-2.357,5.856-3.417c1.992-1.084,4.025-2.108,6.11-3.017L53.124,51.407z"/>
<path fill="#5BA629" d="M35.408,33.185v0.02c0,0,0,0-0.019-0.02H35.408z"/>
<path fill="#5BA629" d="M47.843,29.643c0,2.409-3.556,4.358-7.938,4.358c-1.957,0-3.443-0.393-4.497-1.016h-0.019
	c-0.018-0.017-0.038-0.033-0.075-0.049c-0.414-0.279-2.221-1.443-4.553-1.803c-2.671-0.409-16.141,1.098-17.871,1.098
	c-1.637,0-2.973-1.164-2.973-2.589c0-1.442,1.336-2.605,2.973-2.605c1.73,0,15.2,1.508,17.871,1.098
	c1.957-0.296,3.536-1.164,4.251-1.59c0.264-0.163,0.395-0.262,0.395-0.262c1.053-0.622,2.54-1.016,4.497-1.016
	C44.287,25.268,47.843,27.218,47.843,29.643z"/>
<path fill="#5BA629" d="M47.504,37.726c0,0-0.113,2.183-3.123,2.183c-1.881,0-17.08-1.204-17.08-1.204
	c-1.75,0.169-3.518,3.028-5.644,3.235c-1.299,0.113-11.52-1.806-11.52-1.806s-0.336-0.287,0-0.526l10.353,0.508
	c0.338,0,0.621-0.188,0.621-0.715c0-0.245-0.207-0.49-0.527-0.49l-10.446-0.207c-0.248-0.062-0.215-0.415,0-0.508h10.372
	c0.319,0,0.602-0.207,0.602-0.49c0-0.263-0.283-0.47-0.602-0.47H10.138c-0.179-0.123-0.16-0.329,0-0.526l10.315-0.169
	c0.339,0,0.639-0.226,0.639-0.452c-0.038-0.414-0.282-0.622-0.583-0.622l-10.372,0.357c-0.218-0.24,0-0.508,0-0.508
	s10.127-1.448,11.557-1.316c2.559,0.226,3.856,2.578,5.606,2.765c0,0,15.199-1.204,17.08-1.204
	C47.391,35.562,47.504,37.726,47.504,37.726z"/>
<circle cx="2.293" cy="33.605" r="2.293"/>
<circle cx="60.726" cy="33.605" r="2.293"/>
<path d="M69.88,25.391c0.661-2.235,2.134-7.264,2.489-8.331c0.508-0.355,4.673-0.812,5.537-0.609l0.305,0.559l-6.756,9.093
	L69.88,25.391z"/>
<path d="M106.248,26.001c-0.508-1.931-1.168-3.454-2.032-4.369c-1.067-1.118-2.438-1.473-5.283-1.473h-2.54
	c-1.778,0-1.981,0.102-1.981,1.778v11.226h4.166c4.521,0,5.029-0.457,5.587-3.708h1.829v10.108h-1.829
	c-0.559-3.454-1.067-3.86-5.587-3.86h-4.166v8.026c0,4.775,0.406,5.08,4.826,5.435v1.778H83.44v-1.778
	c3.708-0.355,4.166-0.66,4.166-5.435V24.985c0-4.572-0.457-4.927-4.166-5.283v-1.778h24.027c0.051,0.863,0.305,4.775,0.559,7.771
	L106.248,26.001z"/>
<path d="M147.034,34.078c0,10.972-7.874,17.626-17.474,17.626c-10.159,0-17.22-7.467-17.22-17.169
	c0-8.737,6.248-17.322,17.88-17.322C139.465,17.213,147.034,24.07,147.034,34.078z M120.163,33.519
	c0,8.737,3.81,16.052,10.312,16.052c4.826,0,8.737-4.724,8.737-14.07c0-10.109-4.064-16.153-10.007-16.153
	C124.125,19.347,120.163,24.731,120.163,33.519z"/>
<path d="M187.514,34.078c0,10.972-7.873,17.626-17.474,17.626c-10.159,0-17.22-7.467-17.22-17.169
	c0-8.737,6.248-17.322,17.88-17.322C179.945,17.213,187.514,24.07,187.514,34.078z M160.643,33.519
	c0,8.737,3.81,16.052,10.312,16.052c4.826,0,8.737-4.724,8.737-14.07c0-10.109-4.064-16.153-10.007-16.153
	C164.605,19.347,160.643,24.731,160.643,33.519z"/>
<path d="M206.913,17.924c6.4,0,11.328,1.27,14.579,4.368c2.54,2.388,4.521,5.994,4.521,10.82c0,6.197-2.489,10.667-6.35,13.613
	c-3.759,2.845-9.093,4.216-15.391,4.216h-13.056v-1.778c4.014-0.355,4.521-0.66,4.521-5.029V24.731c0-4.369-0.508-4.673-4.063-5.029
	v-1.778H206.913z M202.545,43.831c0,3.657,0.762,4.927,4.317,4.927c6.807,0,11.48-5.537,11.48-14.629
	c0-4.826-1.474-8.687-3.81-10.972c-2.083-2.133-4.775-3.149-8.28-3.149c-1.828,0-2.845,0.355-3.2,0.711
	c-0.406,0.458-0.508,1.321-0.508,2.794V43.831z"/>
<path d="M248.614,33.214c5.893,0.711,9.753,3.099,9.753,7.924c0,3.403-1.879,6.045-4.724,7.62
	c-2.591,1.473-6.502,2.184-10.718,2.184h-12.902v-1.778c3.911-0.355,4.368-0.711,4.368-5.029V24.731
	c0-4.369-0.457-4.673-4.063-5.029v-1.778h14.832c3.911,0,6.451,0.508,8.382,1.727c1.879,1.219,2.997,3.302,2.997,5.791
	c0,4.876-4.268,6.858-7.925,7.569V33.214z M242.265,32.503c4.877,0,7.061-1.931,7.061-6.146c0-4.623-2.742-6.35-5.485-6.35
	c-1.169,0-1.981,0.355-2.286,0.66c-0.355,0.356-0.457,1.118-0.457,2.185v9.651H242.265z M241.097,44.034
	c0,3.759,1.016,4.826,3.708,4.775c2.845-0.051,6.045-2.134,6.045-7.112c0-4.775-2.997-7.162-8.737-7.162h-1.016V44.034z"/>
<path d="M279.647,50.942v-1.778c2.997-0.457,3.251-1.067,2.438-3.302c-0.508-1.524-1.27-3.708-2.032-5.74h-9.753
	c-0.559,1.575-1.219,3.403-1.828,5.436c-0.762,2.438-0.609,3.149,3.099,3.606v1.778h-11.379v-1.778
	c3.353-0.406,4.014-0.965,5.689-5.232l10.413-26.109l2.591-0.661c3.251,8.89,6.4,17.728,9.702,26.465
	c1.728,4.47,2.337,5.131,5.588,5.537v1.778H279.647z M275.33,26.407h-0.152c-1.423,3.708-2.692,7.416-4.013,11.023h7.924
	L275.33,26.407z"/>
<path d="M332.573,19.651c-2.743,0.152-3.81,0.863-4.063,3.149c-0.152,1.575-0.457,3.962-0.457,8.483V51.45h-2.438l-21.131-25.296
	h-0.152v11.378c0,4.47,0.254,6.756,0.406,8.28c0.254,2.235,1.117,3.2,4.876,3.353v1.778h-12.445v-1.778
	c2.845-0.203,4.014-1.016,4.217-3.2c0.203-1.676,0.508-3.962,0.508-8.432V26.966c0-3.353-0.051-4.267-1.016-5.486
	c-0.966-1.219-2.083-1.625-4.268-1.829v-1.727h9.397l19.455,22.299h0.152v-8.94c0-4.521-0.254-6.908-0.406-8.381
	c-0.254-2.185-1.27-3.048-5.028-3.251v-1.727h12.394V19.651z"/>
<path d="M359.339,50.942c-2.185-2.997-6.4-8.94-10.007-14.223c-1.067-1.524-1.728-1.829-2.489-1.727v9.144
	c0,4.369,0.457,4.673,4.368,5.029v1.778h-15.188v-1.778c3.657-0.355,4.165-0.66,4.165-5.029V24.731c0-4.369-0.457-4.673-4.267-5.029
	v-1.778h14.934v1.778c-3.606,0.355-4.013,0.66-4.013,5.029v8.635c1.066-0.305,2.337-1.117,3.86-2.692
	c3.403-3.455,5.436-5.943,7.111-8.229c1.22-1.575,1.118-2.336-1.27-2.641l-0.914-0.102v-1.778h13.207v1.778
	c-3.149,0.305-5.232,0.914-8.026,3.556c-2.997,2.743-5.13,5.181-7.416,7.518c3.251,4.876,7.01,10.007,10.667,14.629
	c2.083,2.641,3.454,3.454,5.486,3.759v1.778H359.339z"/>
</svg>
